<?xml version="1.0" encoding="UTF-8"?><svg xmlns="http://www.w3.org/2000/svg" xmlns:xlink="http://www.w3.org/1999/xlink" fill-opacity="1" color-rendering="auto" color-interpolation="auto" text-rendering="auto" stroke="black" stroke-linecap="square" width="826" stroke-miterlimit="10" shape-rendering="auto" stroke-opacity="1" fill="black" stroke-dasharray="none" font-weight="normal" stroke-width="1" height="536" font-family="'Dialog'" font-style="normal" stroke-linejoin="miter" font-size="12px" stroke-dashoffset="0" image-rendering="auto">
  <!--Generated by ySVG 2.5-->
  <defs id="genericDefs"/>
  <g>
    <defs id="defs1">
      <clipPath clipPathUnits="userSpaceOnUse" id="clipPath1">
        <path d="M0 0 L826 0 L826 536 L0 536 L0 0 Z"/>
      </clipPath>
      <clipPath clipPathUnits="userSpaceOnUse" id="clipPath2">
        <path d="M-15 -15 L811 -15 L811 521 L-15 521 L-15 -15 Z"/>
      </clipPath>
      <clipPath clipPathUnits="userSpaceOnUse" id="clipPath3">
        <path d="M377 0 L377 172 L683 172 L683 0 Z"/>
      </clipPath>
      <clipPath clipPathUnits="userSpaceOnUse" id="clipPath4">
        <path d="M215 212 L215 345 L505 345 L505 212 Z"/>
      </clipPath>
      <clipPath clipPathUnits="userSpaceOnUse" id="clipPath5">
        <path d="M0 386 L0 445 L320 445 L320 386 Z"/>
      </clipPath>
      <clipPath clipPathUnits="userSpaceOnUse" id="clipPath6">
        <path d="M584 243 L584 328 L796 328 L796 243 Z"/>
      </clipPath>
      <clipPath clipPathUnits="userSpaceOnUse" id="clipPath7">
        <path d="M110 72 L110 100 L210 100 L210 72 Z"/>
      </clipPath>
      <clipPath clipPathUnits="userSpaceOnUse" id="clipPath8">
        <path d="M397 402 L397 430 L563 430 L563 402 Z"/>
      </clipPath>
      <clipPath clipPathUnits="userSpaceOnUse" id="clipPath9">
        <path d="M397 440 L397 468 L563 468 L563 440 Z"/>
      </clipPath>
      <clipPath clipPathUnits="userSpaceOnUse" id="clipPath10">
        <path d="M397 478 L397 506 L563 506 L563 478 Z"/>
      </clipPath>
    </defs>
    <g fill="white" text-rendering="geometricPrecision" shape-rendering="geometricPrecision" transform="translate(15,15)" stroke="white">
      <rect x="-15" width="826" height="536" y="-15" clip-path="url(#clipPath2)" stroke="none"/>
    </g>
    <g fill="rgb(197,232,197)" text-rendering="geometricPrecision" shape-rendering="geometricPrecision" transform="matrix(1,0,0,1,15,15)" stroke="rgb(197,232,197)">
      <rect x="377" width="306" height="172" y="0" clip-path="url(#clipPath2)" stroke="none"/>
    </g>
    <g text-rendering="geometricPrecision" stroke-miterlimit="1.45" shape-rendering="geometricPrecision" transform="matrix(1,0,0,1,15,15)" stroke-linecap="butt">
      <rect fill="none" x="377" width="306" height="172" y="0" clip-path="url(#clipPath2)"/>
      <text x="481.6191" xml:space="preserve" y="16.1387" clip-path="url(#clipPath3)" font-family="sans-serif" stroke="none">&lt;&lt;Singleton&gt;&gt;</text>
      <text x="484.6047" font-size="13px" y="40.0356" clip-path="url(#clipPath3)" font-family="sans-serif" stroke="none" font-weight="bold" xml:space="preserve">LogManager</text>
      <line stroke-linecap="square" clip-path="url(#clipPath3)" fill="none" x1="378" x2="682" y1="48" y2="48" stroke-miterlimit="10"/>
      <text x="382" xml:space="preserve" y="64.2402" clip-path="url(#clipPath3)" font-family="sans-serif" stroke="none">m_loggers : QList&lt;Logger&gt;</text>
      <text x="382" xml:space="preserve" y="78.209" clip-path="url(#clipPath3)" font-family="sans-serif" stroke="none">m_renderers : QList&lt;LogRenderer&gt;</text>
      <line stroke-linecap="square" clip-path="url(#clipPath3)" fill="none" x1="378" x2="682" y1="86" y2="86" stroke-miterlimit="10"/>
      <text x="382" xml:space="preserve" y="102.1777" clip-path="url(#clipPath3)" font-family="sans-serif" stroke="none">getInstance() : LogManager</text>
      <text x="382" xml:space="preserve" y="116.1465" clip-path="url(#clipPath3)" font-family="sans-serif" stroke="none">createLogger(…) : Logger</text>
      <text x="382" xml:space="preserve" y="130.1152" clip-path="url(#clipPath3)" font-family="sans-serif" stroke="none">addRenderer(toAdd : LogRenderer)</text>
      <text x="382" xml:space="preserve" y="144.084" clip-path="url(#clipPath3)" font-family="sans-serif" stroke="none">getLogger(…) : Logger</text>
      <text x="382" xml:space="preserve" y="158.0527" clip-path="url(#clipPath3)" font-family="sans-serif" stroke="none">getRenderer(…) : LogRenderer</text>
    </g>
    <g fill="rgb(197,232,197)" text-rendering="geometricPrecision" shape-rendering="geometricPrecision" transform="matrix(1,0,0,1,15,15)" stroke="rgb(197,232,197)">
      <rect x="215" width="290" height="133" y="212" clip-path="url(#clipPath2)" stroke="none"/>
    </g>
    <g text-rendering="geometricPrecision" stroke-miterlimit="1.45" shape-rendering="geometricPrecision" transform="matrix(1,0,0,1,15,15)" stroke-linecap="butt">
      <rect fill="none" x="215" width="290" height="133" y="212" clip-path="url(#clipPath2)"/>
      <text x="334.4729" font-size="13px" y="229.0669" clip-path="url(#clipPath4)" font-family="sans-serif" stroke="none" font-weight="bold" xml:space="preserve">Logger</text>
      <line stroke-linecap="square" clip-path="url(#clipPath4)" fill="none" x1="216" x2="504" y1="237" y2="237" stroke-miterlimit="10"/>
      <text x="220" xml:space="preserve" y="253.2715" clip-path="url(#clipPath4)" font-family="sans-serif" stroke="none">m_renderers : QList&lt;LogRenderer&gt;</text>
      <text x="220" xml:space="preserve" y="267.2402" clip-path="url(#clipPath4)" font-family="sans-serif" stroke="none">m_messages : QList&lt;LogMessage&gt;</text>
      <line stroke-linecap="square" clip-path="url(#clipPath4)" fill="none" x1="216" x2="504" y1="275" y2="275" stroke-miterlimit="10"/>
      <text x="220" xml:space="preserve" y="291.209" clip-path="url(#clipPath4)" font-family="sans-serif" stroke="none">registerRenderer(renderer : LogRenderer)</text>
      <text x="220" xml:space="preserve" y="305.1777" clip-path="url(#clipPath4)" font-family="sans-serif" stroke="none">unregisterRenderer(renderer : LogRenderer)</text>
      <text x="220" xml:space="preserve" y="319.1465" clip-path="url(#clipPath4)" font-family="sans-serif" stroke="none"> </text>
      <text x="220" xml:space="preserve" y="333.1152" clip-path="url(#clipPath4)" font-family="sans-serif" stroke="none">log(…) : LogMessage</text>
    </g>
    <g fill="rgb(197,232,197)" text-rendering="geometricPrecision" shape-rendering="geometricPrecision" transform="matrix(1,0,0,1,15,15)" stroke="rgb(197,232,197)">
      <rect x="0" width="320" height="59" y="386.5" clip-path="url(#clipPath2)" stroke="none"/>
    </g>
    <g text-rendering="geometricPrecision" stroke-miterlimit="1.45" shape-rendering="geometricPrecision" transform="matrix(1,0,0,1,15,15)" stroke-linecap="butt">
      <rect fill="none" x="0" width="320" height="59" y="386.5" clip-path="url(#clipPath2)"/>
      <text x="114.6777" font-size="13px" y="403.5669" clip-path="url(#clipPath5)" font-family="sans-serif" stroke="none" font-weight="bold" xml:space="preserve">LogMessage</text>
      <line stroke-linecap="square" clip-path="url(#clipPath5)" fill="none" x1="1" x2="319" y1="411" y2="411" stroke-miterlimit="10"/>
      <line stroke-linecap="square" clip-path="url(#clipPath5)" fill="none" x1="1" x2="319" y1="421" y2="421" stroke-miterlimit="10"/>
      <text x="5" xml:space="preserve" y="437.7715" clip-path="url(#clipPath5)" font-family="sans-serif" stroke="none">attach(fieldName : QString, additional : QJsonValue)</text>
    </g>
    <g fill="rgb(197,232,197)" text-rendering="geometricPrecision" shape-rendering="geometricPrecision" transform="matrix(1,0,0,1,15,15)" stroke="rgb(197,232,197)">
      <rect x="584" width="212" height="85.5" y="243.25" clip-path="url(#clipPath2)" stroke="none"/>
    </g>
    <g text-rendering="geometricPrecision" stroke-miterlimit="1.45" shape-rendering="geometricPrecision" transform="matrix(1,0,0,1,15,15)" stroke-linecap="butt">
      <rect fill="none" x="584" width="212" height="85.5" y="243.25" clip-path="url(#clipPath2)"/>
      <text x="642.8179" font-size="13px" y="260.3169" clip-path="url(#clipPath6)" font-family="sans-serif" stroke="none" font-weight="bold" xml:space="preserve">LogRenderer</text>
      <text x="723.3574" xml:space="preserve" y="281.5215" clip-path="url(#clipPath6)" font-family="sans-serif" stroke="none">{Abstract}</text>
      <line stroke-linecap="square" clip-path="url(#clipPath6)" fill="none" x1="585" x2="795" y1="291" y2="291" stroke-miterlimit="10"/>
      <line stroke-linecap="square" clip-path="url(#clipPath6)" fill="none" x1="585" x2="795" y1="301" y2="301" stroke-miterlimit="10"/>
      <text x="589" xml:space="preserve" y="317.4902" clip-path="url(#clipPath6)" font-family="sans-serif" stroke="none">render(message : LogMessage)</text>
    </g>
    <g fill="rgb(197,232,197)" text-rendering="geometricPrecision" shape-rendering="geometricPrecision" transform="matrix(1,0,0,1,15,15)" stroke="rgb(197,232,197)">
      <rect x="110" width="100" height="28" y="72" clip-path="url(#clipPath2)" stroke="none"/>
    </g>
    <g text-rendering="geometricPrecision" stroke-miterlimit="1.45" shape-rendering="geometricPrecision" transform="matrix(1,0,0,1,15,15)" stroke-linecap="butt">
      <rect fill="none" x="110" width="100" height="28" y="72" clip-path="url(#clipPath2)"/>
      <text x="115.3188" font-size="13px" y="89.0669" clip-path="url(#clipPath7)" font-family="sans-serif" stroke="none" font-weight="bold" xml:space="preserve">QJsonObject</text>
    </g>
    <g fill="rgb(218,197,232)" text-rendering="geometricPrecision" shape-rendering="geometricPrecision" transform="matrix(1,0,0,1,15,15)" stroke="rgb(218,197,232)">
      <rect x="397" width="166" height="28" y="402" clip-path="url(#clipPath2)" stroke="none"/>
    </g>
    <g text-rendering="geometricPrecision" stroke-miterlimit="1.45" shape-rendering="geometricPrecision" transform="matrix(1,0,0,1,15,15)" stroke-linecap="butt">
      <rect fill="none" x="397" width="166" height="28" y="402" clip-path="url(#clipPath2)"/>
      <text x="406.5386" font-size="13px" y="419.0669" clip-path="url(#clipPath8)" font-family="sans-serif" stroke="none" font-weight="bold" xml:space="preserve">MyConsoleRenderer</text>
    </g>
    <g fill="rgb(218,197,232)" text-rendering="geometricPrecision" shape-rendering="geometricPrecision" transform="matrix(1,0,0,1,15,15)" stroke="rgb(218,197,232)">
      <rect x="397" width="166" height="28" y="440" clip-path="url(#clipPath2)" stroke="none"/>
    </g>
    <g text-rendering="geometricPrecision" stroke-miterlimit="1.45" shape-rendering="geometricPrecision" transform="matrix(1,0,0,1,15,15)" stroke-linecap="butt">
      <rect fill="none" x="397" width="166" height="28" y="440" clip-path="url(#clipPath2)"/>
      <text x="422.0681" font-size="13px" y="457.0669" clip-path="url(#clipPath9)" font-family="sans-serif" stroke="none" font-weight="bold" xml:space="preserve">MyFileRenderer</text>
    </g>
    <g fill="rgb(218,197,232)" text-rendering="geometricPrecision" shape-rendering="geometricPrecision" transform="matrix(1,0,0,1,15,15)" stroke="rgb(218,197,232)">
      <rect x="397" width="166" height="28" y="478" clip-path="url(#clipPath2)" stroke="none"/>
    </g>
    <g text-rendering="geometricPrecision" stroke-miterlimit="1.45" shape-rendering="geometricPrecision" transform="matrix(1,0,0,1,15,15)" stroke-linecap="butt">
      <rect fill="none" x="397" width="166" height="28" y="478" clip-path="url(#clipPath2)"/>
      <text x="423.1821" font-size="13px" y="495.0669" clip-path="url(#clipPath10)" font-family="sans-serif" stroke="none" font-weight="bold" xml:space="preserve">MyGuiRenderer</text>
      <path fill="none" d="M380 179.0391 L380 211.961" clip-path="url(#clipPath2)"/>
      <path fill="white" d="M380 172.0391 L385 179.0391 L380 186.0391 L375 179.0391 Z" clip-path="url(#clipPath2)" stroke="none"/>
      <path fill="none" d="M380 172.0391 L385 179.0391 L380 186.0391 L375 179.0391 Z" clip-path="url(#clipPath2)"/>
      <path fill="none" d="M260 352.0405 L260 386.4595" clip-path="url(#clipPath2)"/>
      <path fill="white" d="M260 345.0405 L265 352.0405 L260 359.0405 L255 352.0405 Z" clip-path="url(#clipPath2)" stroke="none"/>
      <path fill="none" d="M260 345.0405 L265 352.0405 L260 359.0405 L255 352.0405 Z" clip-path="url(#clipPath2)"/>
      <path fill="none" stroke-dasharray="6,2" d="M270 345.0405 L270 381.4595" clip-path="url(#clipPath2)"/>
      <path stroke-dasharray="6,2" d="M270 385.4595 L276 373.4595 L270 385.4595 L264 373.4595 Z" clip-path="url(#clipPath2)" stroke="none"/>
      <path fill="none" stroke-miterlimit="10" d="M270 385.4595 L276 373.4595 L270 385.4595 L264 373.4595 Z" clip-path="url(#clipPath2)" stroke-linecap="square"/>
      <text x="273" xml:space="preserve" y="369.9043" clip-path="url(#clipPath2)" font-family="sans-serif" stroke="none">&lt;&lt;create&gt;&gt;</text>
      <path fill="none" d="M680 179.0348 L680 243.2152" clip-path="url(#clipPath2)"/>
      <path fill="white" d="M680 172.0348 L685 179.0348 L680 186.0348 L675 179.0348 Z" clip-path="url(#clipPath2)" stroke="none"/>
      <path fill="none" d="M680 172.0348 L685 179.0348 L680 186.0348 L675 179.0348 Z" clip-path="url(#clipPath2)"/>
      <path fill="none" d="M583.9614 290 L505.0385 290" clip-path="url(#clipPath2)"/>
      <path fill="none" d="M160 115.035 L160 386.465" clip-path="url(#clipPath2)"/>
      <path fill="white" d="M160 100.035 L154 116.035 L166 116.035 Z" clip-path="url(#clipPath2)" stroke="none"/>
      <path fill="none" d="M160 100.035 L154 116.035 L166 116.035 Z" clip-path="url(#clipPath2)"/>
      <path fill="none" d="M680 343.7946 L680 420 L563.0286 420" clip-path="url(#clipPath2)"/>
      <path fill="white" d="M680 328.7946 L674 344.7946 L686 344.7946 Z" clip-path="url(#clipPath2)" stroke="none"/>
      <path fill="none" d="M680 328.7946 L674 344.7946 L686 344.7946 Z" clip-path="url(#clipPath2)"/>
      <path fill="none" d="M690 343.7796 L690 450 L563.031 450" clip-path="url(#clipPath2)"/>
      <path fill="white" d="M690 328.7796 L684 344.7796 L696 344.7796 Z" clip-path="url(#clipPath2)" stroke="none"/>
      <path fill="none" d="M690 328.7796 L684 344.7796 L696 344.7796 Z" clip-path="url(#clipPath2)"/>
      <path fill="none" d="M700 343.7894 L700 490 L563.0334 490" clip-path="url(#clipPath2)"/>
      <path fill="white" d="M700 328.7894 L694 344.7894 L706 344.7894 Z" clip-path="url(#clipPath2)" stroke="none"/>
      <path fill="none" d="M700 328.7894 L694 344.7894 L706 344.7894 Z" clip-path="url(#clipPath2)"/>
    </g>
  </g>
</svg>
